inDegrees=no
num_controls=7
num_derivatives=13
num_iterations=270
num_multipliers=7
num_parameters=0
num_slacks=7
num_states=26
objective=6.239517
objective_accelerations=0.511367
objective_balance=0.078123
objective_effort=0.480845
objective_height=5.071924
objective_ligament=0.097258
solver_duration=2311.238098
status=Solve_Succeeded
success=true
DataType=double
version=3
OpenSimVersion=4.4-2022-07-23-0e9fedc
endheader
time	/jointset/ground_pelvis/pelvis_tilt/value	/jointset/ground_pelvis/pelvis_tx/value	/jointset/ground_pelvis/pelvis_ty/value	/jointset/hip_r/hip_flexion_r/value	/jointset/hip_r/hip_adduction_r/value	/jointset/hip_r/hip_rotation_r/value	/jointset/back/lumbar_extension/value	/jointset/patellofemoral_r/patellar_flexion_r/value	/jointset/knee_r/knee_flexion_r/value	/jointset/knee_r/knee_adduction_r/value	/jointset/knee_r/knee_rotation_r/value	/jointset/ankle_r/ankle_angle_r/value	/jointset/subtalar_r/subtalar_angle_r/value	/jointset/ground_pelvis/pelvis_tilt/speed	/jointset/ground_pelvis/pelvis_tx/speed	/jointset/ground_pelvis/pelvis_ty/speed	/jointset/hip_r/hip_flexion_r/speed	/jointset/hip_r/hip_adduction_r/speed	/jointset/hip_r/hip_rotation_r/speed	/jointset/back/lumbar_extension/speed	/jointset/patellofemoral_r/patellar_flexion_r/speed	/jointset/knee_r/knee_flexion_r/speed	/jointset/knee_r/knee_adduction_r/speed	/jointset/knee_r/knee_rotation_r/speed	/jointset/ankle_r/ankle_angle_r/speed	/jointset/subtalar_r/subtalar_angle_r/speed	/forceset/tau_hip_flexion_r	/forceset/tau_hip_adduction_r	/forceset/tau_hip_rotation_r	/forceset/tau_knee_flexion_r	/forceset/tau_ankle_angle_r	/forceset/tau_subtalar_angle_r	/forceset/tau_lumbar_extension	lambda_cid13_p0	lambda_cid14_p0	lambda_cid14_p1	lambda_cid14_p2	lambda_cid14_p3	lambda_cid14_p4	lambda_cid14_p5	/jointset/ground_pelvis/pelvis_tilt/accel	/jointset/ground_pelvis/pelvis_tx/accel	/jointset/ground_pelvis/pelvis_ty/accel	/jointset/hip_r/hip_flexion_r/accel	/jointset/hip_r/hip_adduction_r/accel	/jointset/hip_r/hip_rotation_r/accel	/jointset/back/lumbar_extension/accel	/jointset/patellofemoral_r/patellar_flexion_r/accel	/jointset/knee_r/knee_flexion_r/accel	/jointset/knee_r/knee_adduction_r/accel	/jointset/knee_r/knee_rotation_r/accel	/jointset/ankle_r/ankle_angle_r/accel	/jointset/subtalar_r/subtalar_angle_r/accel	gamma_cid13_p0	gamma_cid14_p0	gamma_cid14_p1	gamma_cid14_p2	gamma_cid14_p3	gamma_cid14_p4	gamma_cid14_p5
0	-0.006516721783444862	0.09626122429952544	0.9427240274086475	0.1762555651711513	-0.2321527136687728	-0.2616407808630582	-0.0385979564078546	0.07317816487761798	0.07317816487761825	0.1745329251994329	0.1745329251994329	0.0324735960626065	-0.003451810579693803	0	0	0	0	0	0	0	0	0	0	0	0	0	0.2456379882898137	-0.2101997940149861	-0.05145443584215258	-0.4560856532520635	0.4786878003073911	-0.1279033831499922	-0.134051379321513	-39.07638626989959	104.9250656084531	-27.58049805419528	-6.104254388898695	-57.41689671392149	-679.1211899631434	84.65273273590873	-1.967484449828145	-0.6594322829873212	-0.5915367592423917	8.399566098170535	0.0152376467238054	2.538924863496169	-4.699959791502842	9.367856808873752	9.36785680887396	-2.549587820019886	0.1896852544047591	3.714633028638702	0.8503956573853629	9.262458888326988e-08	3.251676903561664e-08	-6.862072611704284e-07	2.133314263081406e-07	4.687215546420486e-08	-9.817527041822654e-09	-3.674656610539617e-07
0.01	-0.006608500623610926	0.09622850087929856	0.9426955765999984	0.1766616078267333	-0.2321509165264472	-0.2615057511308451	-0.03883553136638024	0.07363323283670273	0.07363323283670276	0.1744060080188513	0.1745305780519037	0.03265468080830438	-0.003409374246224972	-0.01825922881237161	-0.006549024971781938	-0.005679478459619372	0.08086476297765369	0.0003048571226625571	0.02687307054243434	-0.04720483620433373	0.09062107484276882	0.09062107484276224	-0.02515294125698901	-0.0004554431922796992	0.03600126241233626	0.008380885929592456	0.2384853538090204	-0.2102000792631016	-0.04951526475628867	-0.444970533425329	0.4614723428611823	-0.1216064470760567	-0.1285741123972674	-39.09159001940478	99.60586233108644	-25.79755762682605	-6.365128013771837	-53.71626835935459	-679.3939217595936	87.27159278977561	-1.740657670414557	-0.6532793687966284	-0.5545528622969184	7.878368889680646	0.02985921939360037	2.741618931976317	-4.684222209769943	8.850336751010408	8.850336751009445	-2.463359185620089	-0.1607053886720263	3.510533456553078	0.8158949281228536	1.245509843428228e-07	3.056594916992175e-08	-9.257033637299547e-07	2.04247258749384e-07	7.676874582617801e-08	-1.69620449721529e-07	-4.284228732124425e-07
0.02	-0.006879974866595343	0.09613015885644931	0.9426106511121579	0.1778659856105161	-0.2321477209180237	-0.261105966536735	-0.0395358500219235	0.07498273233001616	0.07498273233001611	0.1740345091266645	0.1745241574163608	0.03318931029993009	-0.003286337079984881	-0.03593908056365099	-0.01312372052447509	-0.01129493583829418	0.1596670256400244	0.0002796932195702049	0.0529509723792377	-0.0925487394035196	0.178886306846815	0.1788863068468067	-0.04891435879724453	-0.0008127376896674588	0.07070894918555143	0.01612016655425125	0.2313327193282252	-0.2102003645112166	-0.04757609367039289	-0.4338554135986114	0.4442568854149678	-0.1153095110021222	-0.1230968454730161	-39.13660760108152	94.36918195381818	-24.02092197167134	-6.601290391575757	-50.22725397631507	-678.4311276260579	89.66636757589875	-1.851609037609696	-0.6645663991695607	-0.5787325430534795	7.987066035113938	-0.05076655842718275	2.379891122369974	-4.327773190473265	8.89668824112923	8.896688241130398	-2.271283076673174	0.2093149933831498	3.455917900814483	0.7220745963986246	1.564773798023756e-07	2.861512930422685e-08	-1.165199466289481e-06	1.951630911906275e-07	1.066653361881511e-07	-3.294233724012355e-07	-4.893800853709233e-07
0.03	-0.007325712514749552	0.09596602099941402	0.9424696610653319	0.1798486435670254	-0.2321464261886669	-0.2604512105210156	-0.04068006641102959	0.07720388054841633	0.07720388054841734	0.1734325544032201	0.1745163834376906	0.03406482408812111	-0.003089011065481934	-0.05310837130924988	-0.01969869592120192	-0.01690763303563342	0.2365117126467071	-6.210020406052221e-05	0.07787556675664248	-0.1360012424760338	0.2649539387772393	0.2649539387772409	-0.07124985390209089	-0.0007581582033040618	0.1041932274534516	0.02325725493351905	0.2240600186830994	-0.2030663594957464	-0.04558004347563425	-0.4238221499204226	0.4297196225191919	-0.1153953339976204	-0.1175287300814167	-39.21029227122653	89.7301370617775	-24.89634257973046	-6.432158220512422	-47.0128702486967	-677.8161667814841	86.67749038019939	-1.634565526791782	-0.653168411847408	-0.5532887647281266	7.480246937277207	-0.0322221570048685	2.530104598799126	-4.309994474381736	8.403359536108294	8.403359536109047	-2.180836110098286	-0.09880793204589507	3.264623367570829	0.696197432116989	1.691936336115582e-07	2.226191690657771e-08	-1.264333128292814e-06	1.794496055239867e-07	1.243293901952725e-07	-4.488302095218449e-07	-5.102284830223089e-07
0.04	-0.007940138357111447	0.09573629232802686	0.9422723939552016	0.1825891637743679	-0.2321498166780811	-0.2595509363608476	-0.04225000895260939	0.08027401685954379	0.080274016859544	0.1726140140521839	0.1745086877822186	0.03526916877454964	-0.002822979872501098	-0.0696767194051162	-0.02624188339485042	-0.02255034849917339	0.3112394758066609	-0.0006573505346452634	0.1020546012689831	-0.1776939698981977	0.3486839253920337	0.3486839253920392	-0.0922314843152538	-0.0007970730492935257	0.136475128833073	0.02986120224983199	0.2167873180379717	-0.1959323544802751	-0.04358399328089031	-0.4137888862422345	0.4151823596234151	-0.1154811569931174	-0.1119606146898174	-39.31108948068098	85.16645795166978	-25.77812042836284	-6.239677661524933	-43.99395035009471	-676.0752097503459	83.48249404057199	-1.731420507663177	-0.6582088145538918	-0.5847361962936283	7.563681265768176	-0.1014579398179923	2.230779149357155	-3.975818060403217	8.429159178003246	8.429159178003236	-2.000510138336472	0.1906161269125802	3.215442523158706	0.6154463838076467	1.815138020258878e-07	1.581793352888827e-08	-1.360572719356844e-06	1.635994328860494e-07	1.417412269579639e-07	-5.674041376618545e-07	-5.302498948075689e-07
0.05	-0.008717799544148572	0.09544134298966531	0.9420183342757567	0.1860671995485458	-0.2321604847974004	-0.2584145009532772	-0.04422769909022971	0.08417058981981587	0.08417058981981657	0.1715927057692457	0.1745020376020429	0.03679054701567058	-0.002493551070599336	-0.0857654937998175	-0.0327354781728464	-0.0282790894280573	0.3840168073495858	-0.001505883853197548	0.1250974921922764	-0.2175586648691961	0.4302358265350932	0.4302358265350847	-0.1118080911374339	-0.0005579062147283263	0.1676055865292917	0.03595122017912992	0.2095087346890979	-0.191697012020847	-0.04147886680026625	-0.4048964644565312	0.4011697431157089	-0.1126817005768771	-0.1063765114808521	-39.43719673492814	80.8538516843509	-25.38804330354103	-6.221201035733684	-41.21166317713155	-674.7894760353918	82.83609367757298	-1.534085200141432	-0.6430304047742758	-0.5696827859244482	7.082133891601985	-0.08115377171805618	2.320856036052103	-3.948986301943997	7.958943161052106	7.95894316104993	-1.903120985816597	-0.0630955442857806	3.032640910890171	0.5945833229242767	1.788154885051747e-07	9.329641996160102e-09	-1.333668355490532e-06	1.545212386946028e-07	1.471760239998305e-07	-6.443620161792112e-07	-5.251220077429212e-07
